<?xml version="1.0" encoding="UTF-8"?>
<svg id="Layer_2" data-name="Layer 2" xmlns="http://www.w3.org/2000/svg" viewBox="0 0 156.85 27.67">
  <g id="Layer_1-2" data-name="Layer 1">
    <g>
      <path d="M7.29.4c.1.02.15.17.15.23,0,.57.06,1.2.1,1.43.04.25-.04.42-.13.42-.06,0-.13-.1-.19-.34-.17-.55-.38-.97-.8-1.26-.46-.36-1.18-.55-1.7-.55-1.01,0-2.46.78-2.46,2.52,0,1.07.65,1.81,1.47,2.37.78.52,1.45.99,2.12,1.47.82.59,2.08,1.53,2.08,3.4,0,2.39-2.25,3.78-4.47,3.78-.99,0-2.25-.25-2.9-.59-.21-.13-.29-.27-.36-.52-.02-.34-.19-1.11-.21-1.62-.02-.25.02-.4.1-.4.1,0,.17.13.25.42.38,1.57,1.74,2.33,3.07,2.33,1.66,0,2.75-1.28,2.75-2.67s-.99-2.18-2.48-3.17C1.98,6.51.76,5.38.76,3.55c0-1.11.52-2.06,1.34-2.69.59-.46,1.51-.86,2.73-.86,1.03,0,2.1.27,2.46.4Z"/>
      <path d="M24.09,7.1c0,3.38-2.29,5.44-3.91,6.15-.86.38-1.83.63-2.83.63-3.82,0-6.93-3.21-6.93-7.05,0-2.1.71-3.97,2.73-5.5,1.09-.84,2.73-1.32,4.09-1.32,3.72,0,6.84,3.17,6.84,7.1ZM13.86,1.89c-.99,1.2-1.43,3.04-1.43,4.81s.63,3.53,1.64,4.79c1.13,1.47,2.44,1.99,3.63,1.99.73,0,1.53-.23,2.23-.88.88-.76,2.14-2.5,2.14-5.5,0-1.87-.55-3.57-1.68-5.02-.73-.9-1.83-1.74-3.49-1.74-1.22,0-2.46.86-3.04,1.55Z"/>
      <path d="M26.57.27c.73,0,1.87.1,2.73.1.1,0,.19.06.48.42,1.39,1.76,6.61,7.62,8.44,9.66.08.06.15.04.15-.13,0-.73-.04-6.26-.1-8.08-.02-1.24-.48-1.45-1.18-1.62-.23-.04-.4-.1-.4-.19,0-.1.21-.15.42-.15.38,0,1.01.08,1.47.08.61,0,1.18-.08,1.41-.08s.34.04.34.13c0,.1-.17.17-.36.23-.82.25-.88.71-.97,1.24-.08.9-.13,5.17-.13,7.1s-.04,3.13,0,4.24c.02.46-.06.65-.21.65-.08,0-.34-.23-.71-.71-1.11-1.39-6.57-7.62-9.34-10.85-.1-.13-.19-.08-.19.04,0,.65-.04,7.47-.04,8.48.02.92.06,1.36.23,1.72.15.38.67.57,1.05.67.21.04.36.1.36.23,0,.1-.21.13-.42.13-.36,0-.92-.08-1.6-.08-.61,0-1.3.1-1.47.1-.29,0-.36-.06-.36-.13,0-.1.17-.15.4-.23.73-.21,1.01-.38,1.11-1.6.08-.8.25-7.2.25-9.11,0-1.22-.21-1.39-.38-1.51-.27-.21-.57-.31-1.03-.4-.29-.06-.4-.1-.4-.21,0-.08.13-.15.44-.15Z"/>
      <path d="M42.84.27c.4,0,1.47.1,2.1.1.67,0,1.36-.06,1.81-.06.23,0,.34.04.34.13,0,.1-.13.17-.34.21-.5.1-.61.23-.61.4,0,.13.1.4.34.78.38.65,2.16,3.78,2.69,4.45.02.02.17.13.23.02.63-1.05,1.97-3.21,2.41-4.03.36-.59.5-.9.5-1.11,0-.25-.27-.44-.8-.55-.19-.04-.36-.1-.36-.21,0-.06.13-.1.34-.1.59,0,.92.08,1.51.08.5,0,1.24-.1,1.53-.1.25,0,.38.04.38.13s-.13.17-.44.21c-.82.17-1.2.55-1.64,1.15-1.07,1.39-2.48,3.82-3.07,4.83-.15.23-.27.57-.27.78-.04.78-.04,1.91-.04,2.9,0,.52,0,.92.04,1.64.02.99.19,1.18.94,1.34.27.06.44.1.44.23,0,.1-.21.13-.38.13-.94,0-1.18-.1-2.12-.1-.78,0-1.24.08-1.83.08-.29,0-.44-.06-.44-.17,0-.08.21-.15.46-.19.84-.1.99-.36,1.05-1.11.04-.44.08-1.81.08-2.71,0-1.32,0-1.66-.04-1.95-.02-.17-.08-.4-.15-.48-.61-1.15-2.37-4.14-3-5-.67-.92-.99-1.24-1.66-1.36-.34-.06-.44-.15-.44-.21,0-.13.17-.13.42-.13Z"/>
      <path d="M61.64.27c.06.4.27,1.01.55,1.72,1.36,3.65,2.65,6.93,3.88,9.72.52,1.2.73,1.39,1.26,1.49.25.06.36.15.36.21,0,.1-.21.17-.38.17-.46,0-.82-.08-1.91-.08-.9,0-1.66.1-2.18.1-.23,0-.38-.06-.38-.15,0-.1.19-.19.4-.21.78-.13.99-.46.94-.94-.06-.4-.76-2.25-1.43-3.99-.06-.15-.21-.25-.29-.25-.82.04-3.34.04-3.8.04-.1,0-.23.21-.29.36-.21.5-.8,2.02-1.09,3.02-.21.73-.21,1.15.02,1.39.19.21.48.27.9.38.21.04.31.13.31.21,0,.1-.19.15-.44.15-.4,0-1.24-.1-1.97-.1-.52,0-.94.1-1.47.1-.23,0-.38-.04-.38-.15s.21-.15.42-.19c.94-.21,1.18-.42,1.97-2.16.63-1.34,2.46-5.9,3.63-8.97.08-.27.1-.42.1-.59,0-.08.04-.19.08-.21.29-.19.76-.65.86-1.09.04-.1.06-.21.17-.21.06,0,.13.08.15.23ZM62.29,7.16c-.78-2.2-1.41-3.67-1.68-4.33-.06-.17-.1-.1-.17.04-.44,1.05-1.32,3.55-1.62,4.39-.02.06-.02.17.06.17.42.02.94.02,1.64.02.73,0,1.55,0,1.74-.06.06-.02.06-.1.02-.23Z"/>
      <path d="M73.13.36c.9,0,1.81,0,2.67-.08.59-.06,1.49-.15,1.97-.15,1.7,0,3.21.25,4.66,1.13,1.66,1.05,3.09,2.83,3.09,5.54,0,4.24-2.9,6.11-5.56,6.76-.57.13-1.43.17-1.95.17s-1.03-.04-1.62-.08c-.63-.04-1.22-.1-1.85-.1-.57,0-1.24.04-1.45.04-.23,0-.42-.04-.42-.17,0-.06.1-.13.36-.17.76-.13.94-.29,1.01-1.11.06-.5.08-2.2.08-4.28,0-3.76-.04-5.44-.08-6.09-.06-.73-.17-.94-.94-1.09-.19-.02-.34-.08-.34-.19,0-.08.15-.13.38-.13ZM76.17.69c-.1.04-.23.19-.23.59-.04.69-.06,1.36-.06,5.23,0,2.14.06,3.49.13,4.51.08,1.01.21,1.51.73,1.89.29.25.92.48,1.62.48.84,0,1.6-.17,2.2-.52,1.24-.67,2.92-2.31,2.92-5.73,0-1.91-.61-3.76-1.93-5-1.18-1.07-2.39-1.64-4.14-1.64-.48,0-1.03.1-1.24.19Z"/>
      <path d="M88.39.29c.78,0,1.26.08,1.89.08.76,0,1.43-.08,1.91-.08.19,0,.31.04.31.1,0,.08-.1.17-.34.21-.84.13-.86.44-.9,1.3-.06,1.03-.04,3.44-.04,4.7,0,3.11.04,4.83.08,5.48.04.82.19.94.8,1.11.27.06.36.13.36.21,0,.13-.17.15-.42.15-.4,0-.88-.06-1.55-.06-1.13,0-1.72.1-2.12.1-.23,0-.38-.04-.38-.15,0-.06.08-.13.46-.23.78-.15.9-.48.94-1.76.04-1.2.02-6.91.02-7.83,0-1.03-.06-1.81-.1-2.12-.08-.67-.31-.78-.99-.92-.17-.06-.25-.13-.25-.19s.13-.1.31-.1Z"/>
      <path d="M95.83.27c.65,0,1.36.1,1.95.1.73,0,1.28-.08,1.83-.08.25,0,.36.04.36.13s-.17.17-.31.19c-.82.17-.88.29-.94,1.72-.02.36-.04,2.35-.04,4.26s.02,4.01.04,4.41c.06.84.1,1.41.27,1.64.23.31.82.52,2.46.55.86,0,1.41-.02,1.76-.1.44-.1.94-.67,1.36-1.43.17-.27.27-.34.36-.34.1,0,.06.31-.04.63-.06.15-.48,1.34-.57,1.49s-.29.21-.48.21c-.21,0-1.78,0-2.81-.04-1.05-.04-2.5-.1-3.32-.1-.63,0-1.62.1-1.89.1s-.46-.02-.46-.15c0-.1.17-.15.36-.19.88-.15,1.03-.42,1.09-1.07.08-.86.08-2.23.08-5.12s0-4.26-.04-5c-.06-1.2-.17-1.32-1.03-1.47-.27-.06-.34-.13-.34-.21,0-.06.15-.13.36-.13Z"/>
      <path d="M107.29.36c.38.02,1.53,0,2.02-.06.67-.08,1.51-.17,2.2-.17,2.39,0,4.24,1.03,4.24,3.36,0,.82-.48,1.6-.9,1.93-.38.27-.73.5-1.09.65-.13.06-.06.15.02.17.82.31,1.32.65,1.78,1.03.67.57,1.11,1.45,1.11,2.54,0,1.62-.9,2.73-2.37,3.38-.4.19-1.26.44-2.62.44-.36,0-.88,0-1.72-.04-.9-.02-1.34-.02-1.83-.02h-1.01c-.29,0-.44-.06-.44-.15,0-.1.15-.17.36-.19.8-.08,1.13-.44,1.2-1.2.06-.57.06-3.57.06-5.88,0-1.18-.02-3.53-.04-4.37-.04-.73-.19-.9-1.01-1.09-.23-.04-.31-.13-.31-.19,0-.08.15-.15.36-.15ZM113.86,7.64c-.78-.94-1.39-1.13-2.6-1.13-.42,0-.84.02-1.03.04-.13.02-.19.15-.21.25-.06.48,0,3.28.06,3.99.08.92.15,1.49.31,1.72.21.31.8.76,1.74.76.31,0,.71-.08,1.07-.27.73-.42,1.49-1.18,1.49-2.92,0-.63-.13-1.66-.84-2.44ZM111.05.5c-.31,0-.67.04-.8.08-.06.02-.19.25-.19.31-.04.4-.06,3.49-.04,4.89.02.1.06.27.27.29.31.04,1.11.04,1.36,0,.99-.13,2.29-.97,2.29-2.52,0-2.02-1.36-3.07-2.9-3.07Z"/>
      <path d="M119.28.29c.5,0,1.28.08,1.85.08,1.2,0,3.95-.04,4.79-.04s1.09-.04,1.28-.04c.1,0,.19.13.23.34.02.21.08,1.09.17,1.49.02.13-.02.31-.08.31-.08,0-.15-.06-.25-.29-.36-.86-.78-1.26-1.15-1.32-.44-.08-2.98-.08-3.78-.06-.17.02-.25.06-.25.84v4.75c0,.23.06.31.13.31h2.54c.9,0,1.2-.04,1.39-.17.17-.08.34-.31.55-.82.06-.13.13-.23.21-.23s.1.13.1.23c0,.13-.08.82-.1,1.15-.04.36.02,1.05.04,1.18.04.31-.08.42-.13.42-.08,0-.13-.08-.25-.4-.08-.23-.23-.63-.57-.71-.48-.1-1.03-.13-3.76-.13-.13,0-.15.06-.15.36,0,1.07.06,4.07.06,4.47,0,.23.17.76.55.92.31.15.67.19,2.04.19,1.6,0,2.04-.02,2.48-.44.23-.21.57-.73.78-1.01.19-.25.29-.36.38-.36s.1.15.02.4c-.1.42-.36,1.36-.48,1.6-.06.17-.19.27-.34.27-2.23,0-4.6-.08-6.3-.08-.71,0-1.95.1-2.18.1-.25,0-.38-.06-.38-.15,0-.1.15-.15.38-.19.67-.13,1.09-.38,1.11-1.3.1-3.34.1-5.77.1-9.74,0-1.2-.25-1.45-1.01-1.6-.21-.04-.31-.13-.31-.21,0-.06.13-.13.31-.13Z"/>
      <path d="M141.81.99c.17.1.23.25.21.38-.04.48.06,1.43.06,1.64s-.08.34-.13.34c-.08,0-.15-.1-.19-.27-.17-.71-.63-1.39-1.01-1.68-.78-.69-1.93-1.05-3.19-1.05-1.36,0-2.6.67-3.49,1.57-.97,1.05-1.62,2.94-1.62,4.93,0,1.81.76,3.82,1.89,5.06,1.01,1.09,2.41,1.53,3.53,1.53,1.2,0,1.91-.25,2.46-.59.8-.48,1.26-1.18,1.6-2.04.08-.25.13-.34.21-.34s.13.19.13.31c0,.34-.25,1.36-.29,1.62-.04.15-.1.29-.21.36-1.26.69-2.37,1.11-4.09,1.11-2.56,0-4.24-.92-5.5-2.2-.9-.92-1.76-2.81-1.76-4.64,0-2.5,1.01-4.07,2.35-5.29,1.09-.99,2.98-1.74,4.96-1.74,1.68,0,3.38.61,4.09.99Z"/>
      <path d="M144.8.27c.5,0,1.36.1,1.91.1.63,0,1.11-.06,1.81-.06.25,0,.31.08.31.15s-.17.15-.36.17c-.84.19-.88.46-.92,2.29-.02.61-.04,2.75-.02,3.34,0,.25.06.29.17.25.29-.25.55-.44.99-.86.78-.78,3.34-3.38,3.86-4.03.21-.25.34-.4.34-.55,0-.19-.21-.25-.67-.36-.23-.04-.34-.13-.34-.19,0-.08.13-.17.34-.17.44,0,.8.04,1.34.02.8-.04,1.7-.1,2.06-.1.23,0,.29.06.29.13,0,.08-.13.15-.36.19-.88.19-1.47.46-2.44,1.3-.86.73-2.71,2.52-3.86,3.74-.06.06-.1.13-.1.19,0,.04.04.1.13.21.84.94,4.6,5.31,5.58,6.32.67.63,1.03.73,1.57.86.31.08.42.17.42.25,0,.13-.21.17-.4.17-.59,0-1.83-.13-2.58-.13-.71,0-1.32.06-1.6.06-.25,0-.42-.06-.42-.17,0-.06.06-.15.36-.23.46-.1.55-.21.55-.34s-.13-.31-.31-.55c-1.55-1.87-4.22-4.81-4.58-5.25-.15-.15-.19-.19-.23-.19-.08,0-.08.1-.08.36-.02.29-.02,1.6-.02,2.62s.04,2.23.08,2.65c.06.48.31.63.88.76.31.06.42.13.42.23s-.21.15-.4.15c-.5,0-.9-.1-1.91-.1-.71,0-1.47.1-1.78.1-.29,0-.4-.06-.4-.15s.08-.17.42-.23c.59-.13.78-.36.84-.8.04-.48.13-1.78.13-6.34,0-1.81,0-3.99-.06-4.54-.08-.73-.36-.82-.92-.97-.17-.04-.31-.1-.31-.19s.13-.13.29-.13Z"/>
      <path d="M46.45,27.5v-8.47h5.39v.7h-4.62v3.06h4.2v.7h-4.2v3.32h4.91v.7h-5.67Z"/>
      <path d="M54.19,24.98c.41,1.31,1.21,1.99,2.48,1.99s2.11-.59,2.11-1.64c0-.85-.49-1.24-1.89-1.7l-.71-.24c-1.55-.52-2.29-1.1-2.29-2.33,0-1.32,1.19-2.19,2.71-2.19s2.47.73,2.96,1.96l-.71.36c-.37-1.13-1.2-1.64-2.23-1.64-1.22,0-1.95.6-1.95,1.49,0,.82.54,1.19,1.91,1.64l.74.25c1.67.54,2.27,1.18,2.27,2.38,0,1.45-1.2,2.37-2.95,2.37-1.57,0-2.66-.85-3.18-2.34l.73-.35Z"/>
      <path d="M63.66,27.5v-7.77h-2.59v-.7h5.97v.7h-2.6v7.77h-.78Z"/>
      <path d="M74.5,27.5v-4.05h-4.82v4.05h-.76v-8.47h.76v3.73h4.82v-3.73h.77v8.47h-.77Z"/>
      <path d="M77.79,27.5v-8.47h5.39v.7h-4.62v3.06h4.2v.7h-4.2v3.32h4.91v.7h-5.67Z"/>
      <path d="M87.37,27.5v-7.77h-2.59v-.7h5.97v.7h-2.6v7.77h-.78Z"/>
      <path d="M92.64,27.5v-8.47h.76v8.47h-.76Z"/>
      <path d="M101.51,21.44c-.25-1.12-.89-1.88-2.22-1.88-1.79,0-2.9,1.31-2.9,3.56,0,2.39,1.14,3.83,2.9,3.83,1.18,0,2.06-.65,2.33-1.98l.78.28c-.46,1.56-1.58,2.41-3.18,2.41-2.24,0-3.63-1.69-3.63-4.45s1.51-4.33,3.72-4.33c1.62,0,2.64.9,2.96,2.29l-.76.28Z"/>
      <path d="M104.65,24.98c.41,1.31,1.21,1.99,2.48,1.99s2.11-.59,2.11-1.64c0-.85-.49-1.24-1.89-1.7l-.71-.24c-1.55-.52-2.29-1.1-2.29-2.33,0-1.32,1.19-2.19,2.71-2.19s2.47.73,2.96,1.96l-.71.36c-.37-1.13-1.2-1.64-2.23-1.64-1.22,0-1.95.6-1.95,1.49,0,.82.54,1.19,1.91,1.64l.74.25c1.67.54,2.27,1.18,2.27,2.38,0,1.45-1.2,2.37-2.95,2.37-1.57,0-2.66-.85-3.18-2.34l.73-.35Z"/>
    </g>
  </g>
</svg>