<?xml version="1.0" encoding="UTF-8"?>
<svg id="Layer_2" data-name="Layer 2" xmlns="http://www.w3.org/2000/svg" viewBox="0 0 159.44 43">
  <defs>
    <style>
      .cls-1 {
        fill: #191818;
      }
    </style>
  </defs>
  <g id="Layer_1-2" data-name="Layer 1">
    <g>
      <path class="cls-1" d="M8.99.4c.1.02.15.17.15.23,0,.57.06,1.2.1,1.43.04.25-.04.42-.13.42-.06,0-.13-.1-.19-.34-.17-.55-.38-.97-.8-1.26-.46-.36-1.18-.55-1.7-.55-1.01,0-2.46.78-2.46,2.52,0,1.07.65,1.81,1.47,2.37.78.52,1.45.99,2.12,1.47.82.59,2.08,1.53,2.08,3.4,0,2.39-2.25,3.78-4.47,3.78-.99,0-2.25-.25-2.9-.59-.21-.13-.29-.27-.36-.53-.02-.34-.19-1.11-.21-1.62-.02-.25.02-.4.1-.4.1,0,.17.13.25.42.38,1.58,1.74,2.33,3.07,2.33,1.66,0,2.75-1.28,2.75-2.67s-.99-2.18-2.48-3.17c-1.72-1.16-2.94-2.29-2.94-4.12,0-1.11.52-2.06,1.34-2.69.59-.46,1.51-.86,2.73-.86,1.03,0,2.1.27,2.46.4Z"/>
      <path class="cls-1" d="M25.79,7.1c0,3.38-2.29,5.44-3.91,6.15-.86.38-1.83.63-2.83.63-3.82,0-6.93-3.21-6.93-7.05,0-2.1.71-3.97,2.73-5.5,1.09-.84,2.73-1.32,4.09-1.32,3.72,0,6.84,3.17,6.84,7.1ZM15.56,1.89c-.99,1.2-1.43,3.04-1.43,4.81s.63,3.53,1.64,4.79c1.13,1.47,2.44,1.99,3.63,1.99.73,0,1.53-.23,2.23-.88.88-.76,2.14-2.5,2.14-5.5,0-1.87-.55-3.57-1.68-5.02-.73-.9-1.83-1.74-3.49-1.74-1.22,0-2.46.86-3.04,1.55Z"/>
      <path class="cls-1" d="M28.27.27c.73,0,1.87.1,2.73.1.1,0,.19.06.48.42,1.39,1.76,6.61,7.62,8.44,9.66.08.06.15.04.15-.13,0-.73-.04-6.26-.1-8.08-.02-1.24-.48-1.45-1.18-1.62-.23-.04-.4-.1-.4-.19,0-.11.21-.15.42-.15.38,0,1.01.08,1.47.08.61,0,1.18-.08,1.41-.08s.34.04.34.13c0,.11-.17.17-.36.23-.82.25-.88.71-.97,1.24-.08.9-.13,5.17-.13,7.1s-.04,3.13,0,4.24c.02.46-.06.65-.21.65-.08,0-.34-.23-.71-.71-1.11-1.39-6.57-7.62-9.34-10.86-.1-.13-.19-.08-.19.04,0,.65-.04,7.47-.04,8.48.02.92.06,1.37.23,1.72.15.38.67.57,1.05.67.21.04.36.11.36.23,0,.1-.21.13-.42.13-.36,0-.92-.08-1.6-.08-.61,0-1.3.1-1.47.1-.29,0-.36-.06-.36-.13,0-.1.17-.15.4-.23.73-.21,1.01-.38,1.11-1.6.08-.8.25-7.2.25-9.11,0-1.22-.21-1.39-.38-1.51-.27-.21-.57-.32-1.03-.4-.29-.06-.4-.1-.4-.21,0-.08.13-.15.44-.15Z"/>
      <path class="cls-1" d="M44.54.27c.4,0,1.47.1,2.1.1.67,0,1.36-.06,1.81-.06.23,0,.34.04.34.13,0,.1-.13.17-.34.21-.5.1-.61.23-.61.4,0,.13.1.4.34.78.38.65,2.16,3.78,2.69,4.45.02.02.17.13.23.02.63-1.05,1.97-3.21,2.41-4.03.36-.59.5-.9.5-1.11,0-.25-.27-.44-.8-.55-.19-.04-.36-.11-.36-.21,0-.06.13-.11.34-.11.59,0,.92.08,1.51.08.5,0,1.24-.1,1.53-.1.25,0,.38.04.38.13s-.13.17-.44.21c-.82.17-1.2.55-1.64,1.15-1.07,1.39-2.48,3.82-3.07,4.83-.15.23-.27.57-.27.78-.04.78-.04,1.91-.04,2.9,0,.52,0,.92.04,1.64.02.99.19,1.18.94,1.34.27.06.44.1.44.23,0,.11-.21.13-.38.13-.94,0-1.18-.1-2.12-.1-.78,0-1.24.08-1.83.08-.29,0-.44-.06-.44-.17,0-.08.21-.15.46-.19.84-.1.99-.36,1.05-1.11.04-.44.08-1.81.08-2.71,0-1.32,0-1.66-.04-1.95-.02-.17-.08-.4-.15-.48-.61-1.15-2.37-4.14-3-5-.67-.92-.99-1.24-1.66-1.36-.34-.06-.44-.15-.44-.21,0-.13.17-.13.42-.13Z"/>
      <path class="cls-1" d="M63.34.27c.06.4.27,1.01.55,1.72,1.36,3.65,2.65,6.93,3.88,9.72.52,1.2.73,1.39,1.26,1.49.25.06.36.15.36.21,0,.1-.21.17-.38.17-.46,0-.82-.08-1.91-.08-.9,0-1.66.1-2.18.1-.23,0-.38-.06-.38-.15,0-.11.19-.19.4-.21.78-.13.99-.46.94-.95-.06-.4-.76-2.25-1.43-3.99-.06-.15-.21-.25-.29-.25-.82.04-3.34.04-3.8.04-.1,0-.23.21-.29.36-.21.5-.8,2.02-1.09,3.02-.21.73-.21,1.15.02,1.39.19.21.48.27.9.38.21.04.31.13.31.21,0,.1-.19.15-.44.15-.4,0-1.24-.1-1.97-.1-.52,0-.94.1-1.47.1-.23,0-.38-.04-.38-.15s.21-.15.42-.19c.94-.21,1.18-.42,1.97-2.16.63-1.34,2.46-5.9,3.63-8.97.08-.27.1-.42.1-.59,0-.08.04-.19.08-.21.29-.19.76-.65.86-1.09.04-.1.06-.21.17-.21.06,0,.13.08.15.23ZM63.99,7.16c-.78-2.21-1.41-3.67-1.68-4.33-.06-.17-.1-.11-.17.04-.44,1.05-1.32,3.55-1.62,4.39-.02.06-.02.17.06.17.42.02.94.02,1.64.02.73,0,1.55,0,1.74-.06.06-.02.06-.1.02-.23Z"/>
      <path class="cls-1" d="M74.82.36c.9,0,1.81,0,2.67-.08.59-.06,1.49-.15,1.97-.15,1.7,0,3.21.25,4.66,1.13,1.66,1.05,3.09,2.83,3.09,5.54,0,4.24-2.9,6.11-5.56,6.76-.57.13-1.43.17-1.95.17s-1.03-.04-1.62-.08c-.63-.04-1.22-.1-1.85-.1-.57,0-1.24.04-1.45.04-.23,0-.42-.04-.42-.17,0-.06.1-.13.36-.17.76-.13.94-.29,1.01-1.11.06-.5.08-2.2.08-4.28,0-3.76-.04-5.44-.08-6.09-.06-.73-.17-.94-.94-1.09-.19-.02-.34-.08-.34-.19,0-.08.15-.13.38-.13ZM77.87.69c-.1.04-.23.19-.23.59-.04.69-.06,1.36-.06,5.23,0,2.14.06,3.49.13,4.51.08,1.01.21,1.51.73,1.89.29.25.92.48,1.62.48.84,0,1.6-.17,2.2-.52,1.24-.67,2.92-2.31,2.92-5.73,0-1.91-.61-3.76-1.93-5-1.18-1.07-2.39-1.64-4.14-1.64-.48,0-1.03.11-1.24.19Z"/>
      <path class="cls-1" d="M90.09.29c.78,0,1.26.08,1.89.08.76,0,1.43-.08,1.91-.08.19,0,.31.04.31.11,0,.08-.1.17-.34.21-.84.13-.86.44-.9,1.3-.06,1.03-.04,3.44-.04,4.7,0,3.11.04,4.83.08,5.48.04.82.19.95.8,1.11.27.06.36.13.36.21,0,.13-.17.15-.42.15-.4,0-.88-.06-1.55-.06-1.13,0-1.72.1-2.12.1-.23,0-.38-.04-.38-.15,0-.06.08-.13.46-.23.78-.15.9-.48.94-1.76.04-1.2.02-6.91.02-7.83,0-1.03-.06-1.81-.1-2.12-.08-.67-.31-.78-.99-.92-.17-.06-.25-.13-.25-.19s.13-.11.31-.11Z"/>
      <path class="cls-1" d="M97.52.27c.65,0,1.36.1,1.95.1.73,0,1.28-.08,1.83-.08.25,0,.36.04.36.13s-.17.17-.31.19c-.82.17-.88.29-.94,1.72-.02.36-.04,2.35-.04,4.26s.02,4.01.04,4.41c.06.84.1,1.41.27,1.64.23.32.82.53,2.46.55.86,0,1.41-.02,1.76-.1.44-.11.94-.67,1.36-1.43.17-.27.27-.34.36-.34.1,0,.06.31-.04.63-.06.15-.48,1.34-.57,1.49-.08.15-.29.21-.48.21-.21,0-1.78,0-2.81-.04-1.05-.04-2.5-.1-3.32-.1-.63,0-1.62.1-1.89.1s-.46-.02-.46-.15c0-.11.17-.15.36-.19.88-.15,1.03-.42,1.09-1.07.08-.86.08-2.23.08-5.12s0-4.26-.04-5c-.06-1.2-.17-1.32-1.03-1.47-.27-.06-.34-.13-.34-.21,0-.06.15-.13.36-.13Z"/>
      <path class="cls-1" d="M108.99.36c.38.02,1.53,0,2.02-.06.67-.08,1.51-.17,2.2-.17,2.39,0,4.24,1.03,4.24,3.36,0,.82-.48,1.6-.9,1.93-.38.27-.73.5-1.09.65-.13.06-.06.15.02.17.82.31,1.32.65,1.78,1.03.67.57,1.11,1.45,1.11,2.54,0,1.62-.9,2.73-2.37,3.38-.4.19-1.26.44-2.62.44-.36,0-.88,0-1.72-.04-.9-.02-1.34-.02-1.83-.02h-1.01c-.29,0-.44-.06-.44-.15,0-.11.15-.17.36-.19.8-.08,1.13-.44,1.2-1.2.06-.57.06-3.57.06-5.88,0-1.18-.02-3.53-.04-4.37-.04-.74-.19-.9-1.01-1.09-.23-.04-.31-.13-.31-.19,0-.08.15-.15.36-.15ZM115.56,7.64c-.78-.94-1.39-1.13-2.6-1.13-.42,0-.84.02-1.03.04-.13.02-.19.15-.21.25-.06.48,0,3.28.06,3.99.08.92.15,1.49.31,1.72.21.32.8.76,1.74.76.31,0,.71-.08,1.07-.27.73-.42,1.49-1.18,1.49-2.92,0-.63-.13-1.66-.84-2.44ZM112.75.5c-.31,0-.67.04-.8.08-.06.02-.19.25-.19.32-.04.4-.06,3.49-.04,4.89.02.11.06.27.27.29.31.04,1.11.04,1.36,0,.99-.13,2.29-.97,2.29-2.52,0-2.02-1.36-3.07-2.9-3.07Z"/>
      <path class="cls-1" d="M120.98.29c.5,0,1.28.08,1.85.08,1.2,0,3.95-.04,4.79-.04s1.09-.04,1.28-.04c.1,0,.19.13.23.34.02.21.08,1.09.17,1.49.02.13-.02.31-.08.31-.08,0-.15-.06-.25-.29-.36-.86-.78-1.26-1.15-1.32-.44-.08-2.98-.08-3.78-.06-.17.02-.25.06-.25.84v4.75c0,.23.06.32.13.32h2.54c.9,0,1.2-.04,1.39-.17.17-.08.34-.32.55-.82.06-.13.13-.23.21-.23s.1.13.1.23c0,.13-.08.82-.1,1.16-.04.36.02,1.05.04,1.18.04.31-.08.42-.13.42-.08,0-.13-.08-.25-.4-.08-.23-.23-.63-.57-.71-.48-.1-1.03-.13-3.76-.13-.13,0-.15.06-.15.36,0,1.07.06,4.07.06,4.47,0,.23.17.76.55.92.31.15.67.19,2.04.19,1.6,0,2.04-.02,2.48-.44.23-.21.57-.73.78-1.01.19-.25.29-.36.38-.36s.1.15.02.4c-.1.42-.36,1.37-.48,1.6-.06.17-.19.27-.34.27-2.23,0-4.6-.08-6.3-.08-.71,0-1.95.1-2.18.1-.25,0-.38-.06-.38-.15,0-.11.15-.15.38-.19.67-.13,1.09-.38,1.11-1.3.1-3.34.1-5.77.1-9.74,0-1.2-.25-1.45-1.01-1.6-.21-.04-.31-.13-.31-.21,0-.06.13-.13.31-.13Z"/>
      <path class="cls-1" d="M143.51.99c.17.1.23.25.21.38-.04.48.06,1.43.06,1.64s-.08.34-.13.34c-.08,0-.15-.11-.19-.27-.17-.71-.63-1.39-1.01-1.68-.78-.69-1.93-1.05-3.19-1.05-1.36,0-2.6.67-3.49,1.58-.97,1.05-1.62,2.94-1.62,4.93,0,1.81.76,3.82,1.89,5.06,1.01,1.09,2.41,1.53,3.53,1.53,1.2,0,1.91-.25,2.46-.59.8-.48,1.26-1.18,1.6-2.04.08-.25.13-.34.21-.34s.13.19.13.31c0,.34-.25,1.37-.29,1.62-.04.15-.1.29-.21.36-1.26.69-2.37,1.11-4.09,1.11-2.56,0-4.24-.92-5.5-2.21-.9-.92-1.76-2.81-1.76-4.64,0-2.5,1.01-4.07,2.35-5.29,1.09-.99,2.98-1.74,4.96-1.74,1.68,0,3.38.61,4.09.99Z"/>
      <path class="cls-1" d="M146.5.27c.5,0,1.36.1,1.91.1.63,0,1.11-.06,1.81-.06.25,0,.32.08.32.15s-.17.15-.36.17c-.84.19-.88.46-.92,2.29-.02.61-.04,2.75-.02,3.34,0,.25.06.29.17.25.29-.25.55-.44.99-.86.78-.78,3.34-3.38,3.86-4.03.21-.25.34-.4.34-.55,0-.19-.21-.25-.67-.36-.23-.04-.34-.13-.34-.19,0-.08.13-.17.34-.17.44,0,.8.04,1.34.02.8-.04,1.7-.1,2.06-.1.23,0,.29.06.29.13,0,.08-.13.15-.36.19-.88.19-1.47.46-2.44,1.3-.86.74-2.71,2.52-3.86,3.74-.06.06-.11.13-.11.19,0,.04.04.1.13.21.84.94,4.6,5.31,5.58,6.32.67.63,1.03.74,1.58.86.31.08.42.17.42.25,0,.13-.21.17-.4.17-.59,0-1.83-.13-2.58-.13-.71,0-1.32.06-1.6.06-.25,0-.42-.06-.42-.17,0-.06.06-.15.36-.23.46-.11.55-.21.55-.34s-.13-.32-.31-.55c-1.55-1.87-4.22-4.81-4.58-5.25-.15-.15-.19-.19-.23-.19-.08,0-.08.11-.08.36-.02.29-.02,1.6-.02,2.62s.04,2.23.08,2.65c.06.48.31.63.88.76.31.06.42.13.42.23s-.21.15-.4.15c-.5,0-.9-.1-1.91-.1-.71,0-1.47.1-1.79.1-.29,0-.4-.06-.4-.15s.08-.17.42-.23c.59-.13.78-.36.84-.8.04-.48.13-1.78.13-6.34,0-1.81,0-3.99-.06-4.54-.08-.73-.36-.82-.92-.97-.17-.04-.31-.1-.31-.19s.13-.13.29-.13Z"/>
      <path class="cls-1" d="M47.75,27.5v-8.47h5.55v.94h-4.51v2.71h4.11v.92h-4.11v2.96h4.79v.94h-5.83Z"/>
      <path class="cls-1" d="M55.69,24.96c.41,1.19,1.12,1.82,2.33,1.82,1.14,0,1.95-.54,1.95-1.49,0-.78-.4-1.08-1.79-1.54l-.7-.23c-1.58-.52-2.31-1.16-2.31-2.38,0-1.37,1.25-2.29,2.79-2.29,1.4,0,2.54.6,3.07,1.88l-.92.46c-.37-1.04-1.16-1.48-2.1-1.48-1.16,0-1.79.58-1.79,1.36s.46,1.02,1.82,1.48l.72.24c1.6.53,2.29,1.16,2.29,2.44,0,1.51-1.31,2.45-3.05,2.45s-2.76-.88-3.29-2.28l.96-.44Z"/>
      <path class="cls-1" d="M65.02,27.5v-7.53h-2.52v-.94h6.09v.94h-2.53v7.53h-1.04Z"/>
      <path class="cls-1" d="M75.91,27.5v-3.95h-4.51v3.95h-1.01v-8.47h1.01v3.61h4.51v-3.61h1.02v8.47h-1.02Z"/>
      <path class="cls-1" d="M79.33,27.5v-8.47h5.55v.94h-4.51v2.71h4.11v.92h-4.11v2.96h4.79v.94h-5.83Z"/>
      <path class="cls-1" d="M88.87,27.5v-7.53h-2.52v-.94h6.09v.94h-2.53v7.53h-1.04Z"/>
      <path class="cls-1" d="M94.25,27.5v-8.47h1.02v8.47h-1.02Z"/>
      <path class="cls-1" d="M103.27,21.46c-.3-1.12-1.01-1.68-2.07-1.68-1.68,0-2.73,1.21-2.73,3.35s1.08,3.61,2.73,3.61c1.04,0,1.94-.5,2.23-1.76l1.01.36c-.54,1.59-1.78,2.34-3.33,2.34-2.3,0-3.72-1.7-3.72-4.45s1.58-4.35,3.81-4.35c1.51,0,2.66.76,3.07,2.22l-1,.37Z"/>
      <path class="cls-1" d="M106.74,24.96c.41,1.19,1.12,1.82,2.33,1.82,1.14,0,1.96-.54,1.96-1.49,0-.78-.4-1.08-1.79-1.54l-.7-.23c-1.58-.52-2.31-1.16-2.31-2.38,0-1.37,1.25-2.29,2.79-2.29,1.4,0,2.54.6,3.07,1.88l-.92.46c-.37-1.04-1.16-1.48-2.1-1.48-1.16,0-1.79.58-1.79,1.36s.46,1.02,1.82,1.48l.72.24c1.6.53,2.29,1.16,2.29,2.44,0,1.51-1.31,2.45-3.05,2.45s-2.76-.88-3.29-2.28l.96-.44Z"/>
      <path class="cls-1" d="M3.38,36.62s.09.16.09.24c0,.28-.18.52-.32.52-.05,0-.2-.08-.34-.23-.26-.27-.58-.37-.95-.37-.27,0-.48.12-.67.33-.23.26-.34.67-.34,1.18,0,1.07.79,1.61,1.48,1.61.38,0,.66-.11,1-.42.06-.05.18,0,.18.09,0,.1-.02.23-.13.38-.32.45-.91.67-1.47.67-.49,0-.96-.17-1.34-.52-.27-.24-.57-.82-.57-1.48,0-.9.45-1.55,1.02-1.9.49-.31.91-.4,1.33-.4.67,0,.95.21,1.03.3Z"/>
      <path class="cls-1" d="M4.9,34.08c.32-.13.69-.26.9-.32.1-.03.18-.04.21-.04.08,0,.12.15.12.43,0,.79-.03,2.06-.03,2.99,0,.6,0,2.2.02,2.44.03.41.06.42.54.6.16.06.21.15.21.21,0,.08-.07.14-.29.14-.28,0-.69-.03-.95-.03-.39,0-.6.04-.83.04-.16,0-.29-.03-.29-.12,0-.1.07-.18.25-.24.46-.17.47-.3.5-.5.02-.16.04-.78.04-2.5,0-1.35,0-2.27-.03-2.43-.02-.12-.15-.2-.32-.27-.2-.08-.24-.14-.24-.22s.12-.15.19-.18Z"/>
      <path class="cls-1" d="M8.36,36.64c.5-.18.91-.33,1.08-.33.04,0,.1.13.1.16v1.83c0,1.31.03,1.5.04,1.59.01.08.05.18.41.28.14.04.24.13.24.23,0,.09-.16.13-.29.13-.21,0-.62-.03-.84-.03-.51,0-.7.03-.84.03-.2,0-.3-.06-.3-.15s.1-.16.24-.2c.44-.11.46-.19.5-.6.02-.21.04-.89.04-1.46,0-.2,0-.72,0-.78-.01-.08-.1-.19-.39-.38-.07-.04-.11-.16-.11-.2,0-.05.07-.1.13-.12ZM9.41,34.37c.12.14.17.33.17.41,0,.4-.35.57-.53.57-.15,0-.32-.1-.43-.23-.06-.1-.1-.17-.1-.3,0-.33.23-.57.58-.57.14,0,.23.05.31.12Z"/>
      <path class="cls-1" d="M11.65,36.62c.19-.09.45-.18.65-.28.12-.06.24-.1.26-.1.03,0,.17.04.17.12,0,.05,0,.34-.02.44,0,.05.04.05.07.03.31-.21.79-.51,1.42-.51.51,0,.77.25.92.47.16.23.29.64.3,1.33.01.49.01,1.05.03,1.5,0,.29.08.38.26.47.23.09.3.19.3.28,0,.1-.16.16-.29.16s-.45-.03-.75-.03-.51.03-.63.03c-.13,0-.27-.03-.27-.16,0-.06.05-.14.22-.21.25-.09.32-.18.33-.43,0-.49,0-.92,0-1.36,0-.75-.09-1.05-.19-1.18-.1-.13-.3-.27-.71-.27-.38,0-.67.09-.86.22-.02.02-.12.13-.12.25v2.32c0,.15,0,.27.39.42.18.07.26.16.26.24s-.1.16-.28.16c-.33,0-.63-.03-.87-.03-.31,0-.63.03-.79.03-.18,0-.29-.05-.29-.15s.12-.18.22-.21c.44-.14.5-.26.51-.48.03-.48.06-1.23.06-2.25,0-.16-.1-.27-.35-.42-.12-.09-.14-.13-.14-.15,0-.07.09-.21.18-.25Z"/>
      <path class="cls-1" d="M17.36,36.64c.5-.18.91-.33,1.08-.33.04,0,.1.13.1.16v1.83c0,1.31.03,1.5.04,1.59.01.08.05.18.41.28.14.04.24.13.24.23,0,.09-.16.13-.29.13-.21,0-.62-.03-.84-.03-.51,0-.7.03-.84.03-.2,0-.3-.06-.3-.15s.1-.16.24-.2c.44-.11.46-.19.5-.6.02-.21.04-.89.04-1.46,0-.2,0-.72,0-.78-.01-.08-.1-.19-.39-.38-.07-.04-.11-.16-.11-.2,0-.05.07-.1.13-.12ZM18.41,34.37c.12.14.17.33.17.41,0,.4-.35.57-.53.57-.15,0-.32-.1-.43-.23-.06-.1-.1-.17-.1-.3,0-.33.23-.57.58-.57.14,0,.23.05.31.12Z"/>
      <path class="cls-1" d="M23.63,36.62s.09.16.09.24c0,.28-.18.52-.32.52-.05,0-.2-.08-.34-.23-.26-.27-.58-.37-.95-.37-.27,0-.48.12-.67.33-.23.26-.34.67-.34,1.18,0,1.07.79,1.61,1.48,1.61.38,0,.66-.11,1-.42.06-.05.18,0,.18.09,0,.1-.02.23-.13.38-.32.45-.91.67-1.47.67-.49,0-.96-.17-1.34-.52-.27-.24-.57-.82-.57-1.48,0-.9.45-1.55,1.02-1.9.49-.31.91-.4,1.33-.4.67,0,.95.21,1.03.3Z"/>
      <path class="cls-1" d="M27.85,36.7c.2.18.34.65.34.86,0,.38-.04.8-.04,1.92,0,.33.17.49.36.49.08,0,.26-.05.34-.09.04-.02.09.08.09.16,0,.04-.07.23-.09.26-.15.2-.39.36-.73.36-.26,0-.58-.1-.71-.62,0,0-.08-.06-.1-.05-.21.16-.54.35-.77.48-.18.1-.35.15-.53.15-.3,0-.95-.37-.95-1.18,0-.24.08-.39.15-.48.15-.19.36-.28.4-.29,1.01-.24,1.48-.36,1.7-.48.05-.02.11-.09.11-.15v-.38c0-.11,0-.17-.03-.26-.14-.39-.57-.56-.88-.56-.21,0-.41.09-.45.13-.04.05-.08.19-.1.49,0,.11-.05.19-.09.22-.05.04-.23.08-.29.08-.08,0-.33-.01-.42-.05-.05-.02-.12-.12-.12-.16,0-.17.29-.48.72-.78.38-.25.84-.45,1.18-.45.37,0,.62.11.91.38ZM27.3,39.61c.03-.07.07-.18.08-.3v-.64s-.04-.06-.07-.06c-.29.05-.87.19-1.07.26-.28.1-.37.21-.37.46,0,.32.3.62.67.62.22,0,.54-.13.76-.34Z"/>
      <path class="cls-1" d="M30.12,34.08c.32-.13.69-.26.9-.32.1-.03.18-.04.21-.04.08,0,.12.15.12.43,0,.79-.03,2.06-.03,2.99,0,.6,0,2.2.02,2.44.03.41.06.42.54.6.16.06.21.15.21.21,0,.08-.07.14-.29.14-.28,0-.69-.03-.95-.03-.39,0-.6.04-.83.04-.16,0-.29-.03-.29-.12,0-.1.07-.18.25-.24.46-.17.47-.3.5-.5.02-.16.04-.78.04-2.5,0-1.35,0-2.27-.03-2.43-.02-.12-.15-.2-.32-.27-.2-.08-.24-.14-.24-.22s.12-.15.19-.18Z"/>
      <path class="cls-1" d="M37.77,36.4c.11.03.23.06.32.09.05.02.16.16.17.2.02.06.02.44.02.55,0,.07-.08.29-.22.29-.04,0-.13-.09-.22-.27-.22-.41-.55-.58-.76-.58-.23,0-.58.22-.58.59,0,.49.43.62.95.89s.96.58.96,1.17-.37.93-.75,1.1c-.29.14-.61.19-.86.19-.61,0-.91-.14-1.02-.25-.1-.1-.2-.54-.2-.72,0-.26.07-.33.18-.33.06,0,.13.07.26.27.29.45.64.64.91.64.45,0,.7-.3.7-.62,0-.19-.11-.4-.36-.56-.26-.16-.49-.27-.79-.44-.33-.19-.72-.5-.72-1.09,0-.48.27-.76.51-.94.23-.15.65-.26.87-.26.26,0,.49.03.63.08Z"/>
      <path class="cls-1" d="M42.89,36.43c.4,0,.89-.05,1.09-.05.18,0,.3.08.3.16,0,.09-.12.16-.24.19-.41.11-.59.16-.95.46-.28.22-.55.46-.88.74-.05.04-.02.09,0,.13.41.54,1.04,1.27,1.21,1.47.2.22.51.51.73.59.28.11.39.17.39.26,0,.1-.13.15-.34.15-.3,0-.6-.03-1.1-.03-.14,0-.33,0-.44,0-.16,0-.22-.1-.22-.15,0-.09.05-.14.25-.21.12-.04.11-.14.05-.23-.12-.18-.76-.92-.96-1.17-.19-.22-.25-.29-.35-.29-.03,0-.11.03-.17.07-.05.03-.05.08-.05.14,0,.36-.01.68,0,.94,0,.46.19.48.39.56.13.05.23.07.23.15,0,.07-.09.21-.27.21s-.5-.03-.75-.03-.58.03-.77.03c-.15,0-.32-.05-.32-.15,0-.07.06-.15.28-.22.32-.1.34-.23.36-.49.02-.17.06-2.82.06-3.72,0-.8,0-1.02-.01-1.12,0-.22-.05-.32-.3-.46-.09-.05-.19-.12-.19-.16,0-.08.11-.19.2-.22.14-.04.49-.12.74-.19.13-.03.23-.08.29-.08s.11.12.11.18c0,.3-.06,2.6-.06,3.17,0,.43.01.4.01.7-.01.35.02.42.11.42.05,0,.21-.09.34-.2.32-.27.73-.67.93-.91.13-.16.1-.23-.09-.29-.15-.04-.26-.09-.26-.16,0-.1.12-.2.25-.2h.4Z"/>
      <path class="cls-1" d="M45.67,36.64c.5-.18.91-.33,1.08-.33.04,0,.1.13.1.16v1.83c0,1.31.03,1.5.04,1.59.01.08.05.18.41.28.14.04.24.13.24.23,0,.09-.16.13-.29.13-.21,0-.62-.03-.84-.03-.51,0-.7.03-.84.03-.2,0-.3-.06-.3-.15s.1-.16.24-.2c.44-.11.46-.19.5-.6.02-.21.04-.89.04-1.46,0-.2,0-.72,0-.78-.01-.08-.1-.19-.39-.38-.07-.04-.11-.16-.11-.2,0-.05.07-.1.13-.12ZM46.72,34.37c.12.14.17.33.17.41,0,.4-.35.57-.53.57-.15,0-.32-.1-.43-.23-.06-.1-.1-.17-.1-.3,0-.33.23-.57.58-.57.14,0,.23.05.31.12Z"/>
      <path class="cls-1" d="M48.96,36.62c.19-.09.45-.18.65-.28.12-.06.24-.1.26-.1.03,0,.17.04.17.12,0,.05,0,.34-.02.44,0,.05.04.05.07.03.31-.21.79-.51,1.42-.51.51,0,.77.25.92.47.16.23.29.64.3,1.33.01.49.01,1.05.03,1.5,0,.29.08.38.26.47.23.09.3.19.3.28,0,.1-.16.16-.29.16s-.45-.03-.75-.03-.51.03-.63.03c-.13,0-.27-.03-.27-.16,0-.06.05-.14.22-.21.25-.09.32-.18.33-.43,0-.49,0-.92,0-1.36,0-.75-.09-1.05-.19-1.18-.1-.13-.3-.27-.71-.27-.38,0-.67.09-.86.22-.02.02-.12.13-.12.25v2.32c0,.15,0,.27.39.42.18.07.26.16.26.24s-.1.16-.28.16c-.33,0-.63-.03-.87-.03-.31,0-.63.03-.79.03-.18,0-.29-.05-.29-.15s.12-.18.22-.21c.44-.14.5-.26.51-.48.03-.48.06-1.23.06-2.25,0-.16-.1-.27-.35-.42-.12-.09-.14-.13-.14-.15,0-.07.09-.21.18-.25Z"/>
      <path class="cls-1" d="M57.87,36.62s.09.16.09.24c0,.28-.18.52-.32.52-.05,0-.2-.08-.34-.23-.26-.27-.58-.37-.95-.37-.27,0-.48.12-.67.33-.23.26-.34.67-.34,1.18,0,1.07.79,1.61,1.48,1.61.38,0,.66-.11,1-.42.06-.05.18,0,.18.09,0,.1-.02.23-.13.38-.32.45-.91.67-1.47.67-.49,0-.96-.17-1.34-.52-.27-.24-.57-.82-.57-1.48,0-.9.45-1.55,1.02-1.9.49-.31.91-.4,1.33-.4.67,0,.95.21,1.03.3Z"/>
      <path class="cls-1" d="M62.09,36.7c.2.18.34.65.34.86,0,.38-.04.8-.04,1.92,0,.33.17.49.36.49.08,0,.26-.05.34-.09.04-.02.09.08.09.16,0,.04-.07.23-.09.26-.15.2-.39.36-.73.36-.26,0-.58-.1-.71-.62,0,0-.08-.06-.1-.05-.21.16-.54.35-.77.48-.18.1-.35.15-.53.15-.3,0-.95-.37-.95-1.18,0-.24.08-.39.15-.48.15-.19.36-.28.4-.29,1.01-.24,1.48-.36,1.7-.48.05-.02.11-.09.11-.15v-.38c0-.11,0-.17-.03-.26-.14-.39-.57-.56-.88-.56-.21,0-.41.09-.45.13-.04.05-.08.19-.1.49,0,.11-.05.19-.09.22-.05.04-.23.08-.29.08-.08,0-.33-.01-.42-.05-.05-.02-.12-.12-.12-.16,0-.17.29-.48.72-.78.38-.25.84-.45,1.18-.45.37,0,.62.11.91.38ZM61.54,39.61c.03-.07.07-.18.08-.3v-.64s-.04-.06-.07-.06c-.29.05-.87.19-1.07.26-.28.1-.37.21-.37.46,0,.32.3.62.67.62.22,0,.54-.13.76-.34Z"/>
      <path class="cls-1" d="M64.43,36.69c.16-.09.47-.23.68-.34.13-.06.21-.1.29-.1.04,0,.12.11.12.14,0,.14,0,.34.02.49,0,.03.07.07.1.03.29-.32.69-.59,1.08-.59.29,0,.55.2.55.31,0,.22-.26.5-.4.61-.05.05-.12.08-.16.08-.07,0-.13-.03-.23-.1-.08-.06-.23-.12-.36-.12-.18,0-.33.06-.46.23-.04.05-.09.17-.09.23,0,.1,0,1.54.02,1.89.03.47.11.57.56.69.23.06.36.14.36.23,0,.08-.13.17-.25.17-.31,0-.82-.04-1.11-.04-.35,0-.53.03-.81.03-.18,0-.27-.11-.27-.16,0-.11.11-.17.23-.21.39-.14.42-.29.43-.52.02-.45.03-1.68.03-2.21,0-.06,0-.13-.25-.3-.11-.08-.22-.17-.22-.23,0-.09.06-.17.14-.21Z"/>
      <path class="cls-1" d="M71.55,36.92c.13.19.17.45.17.7,0,.11-.17.3-.27.3-.07,0-1.97.03-2.15.03-.03,0-.14.06-.16.11-.04.07-.05.25-.05.31,0,.89.67,1.57,1.53,1.57.39,0,.82-.25,1.01-.38.04-.03.12.02.12.13s-.05.22-.13.31c-.37.39-.9.62-1.43.62-1.25,0-1.96-.85-1.96-2.07,0-.81.37-1.5.97-1.89.33-.22.75-.34,1.17-.34.48,0,.94.21,1.18.6ZM69.21,37.49s.04.1.06.1c.11,0,.44.02.73.02.38,0,.84-.02.84-.36,0-.3-.24-.57-.77-.57-.25,0-.73.31-.86.81Z"/>
      <path class="cls-1" d="M76.95,33v9.99h-.72v-9.99h.72Z"/>
      <path class="cls-1" d="M81.63,36.69c.16-.09.47-.23.68-.34.13-.06.21-.1.29-.1.04,0,.12.11.12.14,0,.14,0,.34.02.49,0,.03.07.07.1.03.29-.32.69-.59,1.08-.59.29,0,.55.2.55.31,0,.22-.26.5-.4.61-.05.05-.12.08-.16.08-.07,0-.13-.03-.23-.1-.08-.06-.23-.12-.36-.12-.18,0-.33.06-.46.23-.04.05-.09.17-.09.23,0,.1,0,1.54.02,1.89.03.47.11.57.56.69.23.06.36.14.36.23,0,.08-.13.17-.25.17-.31,0-.82-.04-1.11-.04-.35,0-.53.03-.81.03-.18,0-.27-.11-.27-.16,0-.11.11-.17.23-.21.39-.14.42-.29.43-.52.02-.45.03-1.68.03-2.21,0-.06,0-.13-.25-.3-.11-.08-.22-.17-.22-.23,0-.09.06-.17.14-.21Z"/>
      <path class="cls-1" d="M88.75,36.92c.13.19.17.45.17.7,0,.11-.17.3-.27.3-.07,0-1.97.03-2.15.03-.03,0-.14.06-.16.11-.04.07-.05.25-.05.31,0,.89.67,1.57,1.53,1.57.39,0,.82-.25,1.01-.38.04-.03.12.02.12.13s-.05.22-.13.31c-.37.39-.9.62-1.43.62-1.25,0-1.96-.85-1.96-2.07,0-.81.37-1.5.97-1.89.33-.22.75-.34,1.17-.34.48,0,.94.21,1.18.6ZM86.41,37.49s.04.1.06.1c.11,0,.44.02.73.02.38,0,.84-.02.84-.36,0-.3-.24-.57-.77-.57-.25,0-.73.31-.86.81Z"/>
      <path class="cls-1" d="M92.38,36.4c.11.03.23.06.32.09.05.02.16.16.17.2.02.06.02.44.02.55,0,.07-.08.29-.22.29-.04,0-.13-.09-.22-.27-.22-.41-.55-.58-.76-.58-.23,0-.58.22-.58.59,0,.49.43.62.95.89s.96.58.96,1.17-.37.93-.75,1.1c-.29.14-.61.19-.86.19-.61,0-.91-.14-1.02-.25-.1-.1-.2-.54-.2-.72,0-.26.07-.33.18-.33.06,0,.13.07.26.27.29.45.64.64.91.64.45,0,.7-.3.7-.62,0-.19-.11-.4-.36-.56-.26-.16-.49-.27-.79-.44-.33-.19-.72-.5-.72-1.09,0-.48.27-.76.51-.94.23-.15.65-.26.87-.26.26,0,.49.03.63.08Z"/>
      <path class="cls-1" d="M96.86,36.4c.07,0,.12.11.13.17,0,.11,0,.27,0,.32-.03.11-.12.13-.23.13-.37,0-.9,0-1.13,0-.02,0-.07.04-.07.15l-.03,1.82c0,.45.03.61.15.75.13.14.42.22.54.22.18,0,.31-.05.46-.09.09-.02.16-.06.22-.06.04,0,.09.07.09.15,0,.11-.08.23-.24.35-.32.24-.77.31-1.02.31-.27,0-.66-.14-.88-.46-.08-.12-.14-.35-.14-.71,0-.7.05-1.31.05-2.26,0-.11-.03-.12-.31-.16-.16-.02-.3-.24-.3-.29,0-.04.12-.13.21-.21.17-.14.54-.37.72-.6.16-.2.35-.26.4-.26.04,0,.09.1.09.15,0,.11,0,.43,0,.49,0,.04,0,.12.08.12.11,0,1-.04,1.23-.04Z"/>
      <path class="cls-1" d="M102.34,38.41c0,.76-.31,1.3-.65,1.61-.36.33-.85.6-1.51.6-.59,0-1.16-.24-1.58-.65-.43-.42-.59-1.03-.59-1.48,0-.7.36-1.31.8-1.66.33-.28.88-.51,1.4-.51,1.38,0,2.12,1.17,2.13,2.09ZM99.38,37.02c-.1.11-.41.56-.41,1.32,0,.56.19,1.25.6,1.6.1.08.39.27.76.27.24,0,.56-.14.76-.39.21-.27.27-.76.27-1.34,0-.85-.45-1.74-1.3-1.74-.22,0-.54.13-.68.28Z"/>
      <path class="cls-1" d="M103.86,36.69c.16-.09.47-.23.68-.34.13-.06.21-.1.29-.1.04,0,.12.11.12.14,0,.14,0,.34.02.49,0,.03.07.07.1.03.29-.32.69-.59,1.08-.59.29,0,.55.2.55.31,0,.22-.26.5-.4.61-.05.05-.12.08-.16.08-.07,0-.13-.03-.23-.1-.08-.06-.23-.12-.36-.12-.18,0-.33.06-.46.23-.04.05-.09.17-.09.23,0,.1,0,1.54.02,1.89.03.47.11.57.56.69.23.06.36.14.36.23,0,.08-.13.17-.25.17-.31,0-.82-.04-1.11-.04-.35,0-.53.03-.81.03-.18,0-.27-.11-.27-.16,0-.11.11-.17.23-.21.39-.14.42-.29.43-.52.02-.45.03-1.68.03-2.21,0-.06,0-.13-.25-.3-.11-.08-.22-.17-.22-.23,0-.09.06-.17.14-.21Z"/>
      <path class="cls-1" d="M110.47,36.7c.2.18.34.65.34.86,0,.38-.04.8-.04,1.92,0,.33.17.49.36.49.08,0,.26-.05.34-.09.04-.02.09.08.09.16,0,.04-.07.23-.09.26-.15.2-.39.36-.73.36-.26,0-.58-.1-.71-.62,0,0-.08-.06-.1-.05-.21.16-.54.35-.77.48-.18.1-.35.15-.53.15-.3,0-.95-.37-.95-1.18,0-.24.08-.39.15-.48.15-.19.36-.28.4-.29,1.01-.24,1.48-.36,1.7-.48.05-.02.11-.09.11-.15v-.38c0-.11,0-.17-.03-.26-.14-.39-.57-.56-.88-.56-.21,0-.41.09-.45.13-.04.05-.08.19-.1.49,0,.11-.05.19-.09.22-.05.04-.23.08-.29.08-.08,0-.33-.01-.42-.05-.05-.02-.12-.12-.12-.16,0-.17.29-.48.72-.78.38-.25.84-.45,1.18-.45.37,0,.62.11.91.38ZM109.92,39.61c.03-.07.07-.18.08-.3v-.64s-.04-.06-.07-.06c-.29.05-.87.19-1.07.26-.28.1-.37.21-.37.46,0,.32.3.62.67.62.22,0,.54-.13.76-.34Z"/>
      <path class="cls-1" d="M115.01,36.4c.07,0,.12.11.13.17,0,.11,0,.27,0,.32-.03.11-.12.13-.23.13-.37,0-.9,0-1.13,0-.02,0-.07.04-.07.15l-.03,1.82c0,.45.03.61.15.75.13.14.42.22.54.22.18,0,.31-.05.46-.09.09-.02.16-.06.22-.06.04,0,.09.07.09.15,0,.11-.08.23-.24.35-.32.24-.77.31-1.02.31-.27,0-.66-.14-.88-.46-.08-.12-.14-.35-.14-.71,0-.7.05-1.31.05-2.26,0-.11-.03-.12-.31-.16-.16-.02-.3-.24-.3-.29,0-.04.12-.13.21-.21.17-.14.54-.37.72-.6.16-.2.35-.26.4-.26.04,0,.09.1.09.15,0,.11,0,.43,0,.49,0,.04,0,.12.08.12.11,0,1-.04,1.23-.04Z"/>
      <path class="cls-1" d="M116.62,36.64c.5-.18.91-.33,1.08-.33.04,0,.1.13.1.16v1.83c.01,1.31.03,1.5.04,1.59.01.08.05.18.41.28.14.04.24.13.24.23,0,.09-.16.13-.29.13-.21,0-.62-.03-.84-.03-.51,0-.7.03-.84.03-.2,0-.3-.06-.3-.15s.1-.16.24-.2c.44-.11.46-.19.5-.6.02-.21.04-.89.04-1.46,0-.2,0-.72,0-.78-.01-.08-.1-.19-.39-.38-.07-.04-.11-.16-.11-.2,0-.05.07-.1.13-.12ZM117.67,34.37c.12.14.17.33.17.41,0,.4-.35.57-.53.57-.15,0-.32-.1-.43-.23-.06-.1-.1-.17-.1-.3,0-.33.23-.57.58-.57.14,0,.23.05.31.12Z"/>
      <path class="cls-1" d="M119.46,36.39c.1,0,.53.05.76.05h.78c.13,0,.22.08.22.15,0,.13-.1.17-.33.24-.13.03-.19.1-.13.32.03.1.41,1.04.83,2.06.02.04.07.04.08,0,.24-.58.62-1.46.8-1.95.09-.25.06-.39-.23-.45-.23-.05-.28-.14-.28-.21,0-.13.13-.17.29-.17.17,0,.37.01.55.01s.45-.05.7-.05c.15,0,.25.09.25.15,0,.11-.11.19-.26.22-.17.04-.38.15-.51.45-.18.39-.44.89-.82,1.8-.26.63-.45,1.19-.53,1.44-.05.15-.21.2-.25.2-.08,0-.2-.11-.23-.17-.03-.07-.23-.8-.43-1.34-.19-.51-.79-1.9-.86-2.02-.07-.12-.13-.25-.46-.36-.14-.05-.25-.11-.25-.2,0-.07.12-.17.31-.17Z"/>
      <path class="cls-1" d="M127.85,36.92c.13.19.17.45.17.7,0,.11-.17.3-.27.3-.07,0-1.97.03-2.15.03-.03,0-.14.06-.16.11-.04.07-.05.25-.05.31,0,.89.67,1.57,1.53,1.57.39,0,.82-.25,1.01-.38.04-.03.12.02.12.13s-.05.22-.13.31c-.37.39-.9.62-1.43.62-1.25,0-1.96-.85-1.96-2.07,0-.81.37-1.5.97-1.89.33-.22.75-.34,1.17-.34.48,0,.94.21,1.18.6ZM125.51,37.49s.04.1.06.1c.11,0,.44.02.73.02.38,0,.84-.02.84-.36,0-.3-.24-.57-.77-.57-.25,0-.73.31-.86.81Z"/>
      <path class="cls-1" d="M132.05,36.98c-.09-.02-.17-.05-.17-.14,0-.14.13-.21.54-.39.04,0,.09-.11.09-.13,0-.37.11-.94.35-1.39.2-.37.5-.66.77-.86.32-.23.79-.41,1.11-.41.38,0,.74.1.89.31.04.05.07.19.07.27,0,.05-.02.11-.05.16-.08.16-.3.28-.4.28-.05,0-.18-.04-.26-.1-.14-.11-.48-.37-.72-.37-.38,0-.62.26-.73.59-.13.37-.18.94-.18,1.38,0,.2.03.26.08.26.32,0,1.08-.03,1.15-.03.12,0,.14.33.14.42,0,.02-.11.19-.17.19-.03,0-1.05,0-1.15,0-.05,0-.09.05-.09.3,0,.85.03,1.41.05,2.2,0,.47.12.54.64.62.17.03.3.13.3.2,0,.12-.13.2-.33.2-.13,0-.5-.03-1.06-.03-.11,0-.46.03-.74.03-.21,0-.32-.07-.32-.18,0-.09.1-.14.25-.2.26-.11.37-.23.38-.41.01-.16.03-.93.03-2.56,0-.05-.06-.13-.08-.13l-.39-.07Z"/>
      <path class="cls-1" d="M138.46,36.7c.2.18.34.65.34.86,0,.38-.04.8-.04,1.92,0,.33.17.49.36.49.08,0,.26-.05.34-.09.04-.02.09.08.09.16,0,.04-.07.23-.09.26-.15.2-.39.36-.73.36-.26,0-.58-.1-.71-.62,0,0-.08-.06-.1-.05-.21.16-.54.35-.77.48-.18.1-.35.15-.53.15-.3,0-.95-.37-.95-1.18,0-.24.08-.39.15-.48.15-.19.36-.28.4-.29,1.01-.24,1.48-.36,1.7-.48.05-.02.11-.09.11-.15v-.38c0-.11,0-.17-.03-.26-.14-.39-.57-.56-.88-.56-.21,0-.41.09-.45.13-.04.05-.08.19-.1.49,0,.11-.05.19-.09.22-.05.04-.23.08-.29.08-.08,0-.33-.01-.42-.05-.05-.02-.12-.12-.12-.16,0-.17.29-.48.72-.78.38-.25.84-.45,1.18-.45.37,0,.62.11.91.38ZM137.91,39.61c.03-.07.07-.18.08-.3v-.64s-.04-.06-.07-.06c-.29.05-.87.19-1.07.26-.28.1-.37.21-.37.46,0,.32.3.62.67.62.22,0,.54-.13.76-.34Z"/>
      <path class="cls-1" d="M143.96,36.62s.09.16.09.24c0,.28-.18.52-.32.52-.05,0-.2-.08-.34-.23-.26-.27-.58-.37-.95-.37-.27,0-.48.12-.67.33-.23.26-.34.67-.34,1.18,0,1.07.79,1.61,1.48,1.61.38,0,.66-.11,1-.42.06-.05.18,0,.18.09,0,.1-.02.23-.13.38-.32.45-.91.67-1.47.67-.49,0-.96-.17-1.34-.52-.27-.24-.57-.82-.57-1.48,0-.9.45-1.55,1.02-1.9.49-.31.91-.4,1.33-.4.67,0,.95.21,1.03.3Z"/>
      <path class="cls-1" d="M145.64,36.64c.5-.18.91-.33,1.08-.33.04,0,.1.13.1.16v1.83c0,1.31.03,1.5.04,1.59.01.08.05.18.41.28.14.04.24.13.24.23,0,.09-.16.13-.29.13-.21,0-.62-.03-.84-.03-.51,0-.7.03-.84.03-.2,0-.3-.06-.3-.15s.1-.16.24-.2c.44-.11.46-.19.5-.6.02-.21.04-.89.04-1.46,0-.2,0-.72,0-.78-.01-.08-.1-.19-.39-.38-.07-.04-.11-.16-.11-.2,0-.05.07-.1.13-.12ZM146.69,34.37c.12.14.17.33.17.41,0,.4-.35.57-.53.57-.15,0-.32-.1-.43-.23-.06-.1-.1-.17-.1-.3,0-.33.23-.57.58-.57.14,0,.23.05.31.12Z"/>
      <path class="cls-1" d="M151.44,36.7c.2.18.34.65.34.86,0,.38-.04.8-.04,1.92,0,.33.17.49.36.49.08,0,.26-.05.34-.09.04-.02.09.08.09.16,0,.04-.07.23-.09.26-.15.2-.39.36-.73.36-.26,0-.58-.1-.71-.62,0,0-.08-.06-.1-.05-.21.16-.54.35-.77.48-.18.1-.35.15-.53.15-.3,0-.95-.37-.95-1.18,0-.24.08-.39.15-.48.15-.19.36-.28.4-.29,1.01-.24,1.48-.36,1.7-.48.05-.02.11-.09.11-.15v-.38c0-.11,0-.17-.03-.26-.14-.39-.57-.56-.88-.56-.21,0-.41.09-.45.13-.04.05-.08.19-.1.49,0,.11-.05.19-.09.22-.05.04-.23.08-.29.08-.08,0-.33-.01-.42-.05-.05-.02-.12-.12-.12-.16,0-.17.29-.48.72-.78.38-.25.84-.45,1.18-.45.37,0,.62.11.91.38ZM150.89,39.61c.03-.07.07-.18.08-.3v-.64s-.04-.06-.07-.06c-.29.05-.87.19-1.07.26-.28.1-.37.21-.37.46,0,.32.3.62.67.62.22,0,.54-.13.76-.34Z"/>
      <path class="cls-1" d="M153.71,34.08c.32-.13.69-.26.9-.32.1-.03.18-.04.21-.04.08,0,.12.15.12.43,0,.79-.03,2.06-.03,2.99,0,.6,0,2.2.02,2.44.03.41.06.42.54.6.16.06.21.15.21.21,0,.08-.07.14-.29.14-.28,0-.69-.03-.95-.03-.39,0-.6.04-.83.04-.16,0-.29-.03-.29-.12,0-.1.07-.18.25-.24.46-.17.47-.3.5-.5.02-.16.04-.78.04-2.5,0-1.35,0-2.27-.03-2.43-.02-.12-.15-.2-.32-.27-.2-.08-.24-.14-.24-.22s.12-.15.19-.18Z"/>
      <path class="cls-1" d="M158.8,36.4c.11.03.23.06.32.09.05.02.16.16.17.2.02.06.02.44.02.55,0,.07-.08.29-.22.29-.04,0-.13-.09-.22-.27-.22-.41-.55-.58-.76-.58-.23,0-.58.22-.58.59,0,.49.43.62.95.89s.96.58.96,1.17-.37.93-.75,1.1c-.29.14-.61.19-.86.19-.61,0-.91-.14-1.02-.25-.1-.1-.2-.54-.2-.72,0-.26.07-.33.18-.33.06,0,.13.07.26.27.29.45.64.64.91.64.45,0,.7-.3.7-.62,0-.19-.11-.4-.36-.56-.26-.16-.49-.27-.79-.44-.33-.19-.72-.5-.72-1.09,0-.48.27-.76.51-.94.23-.15.65-.26.87-.26.26,0,.49.03.63.08Z"/>
    </g>
  </g>
</svg>