<?xml version="1.0" encoding="UTF-8"?>
<svg id="Layer_2" data-name="Layer 2" xmlns="http://www.w3.org/2000/svg" viewBox="0 0 79.66 13.34">
  <g id="Layer_1-2" data-name="Layer 1">
    <path d="M41.4,4.2c10.23,2.66,15.99,3.82,20.67,3.82,6.41.07,13.25-2.52,16.99-7.7.5-.65.65-.14.58.22-.07.36-.5,2.09-1.15,2.81-5.47,5.98-12.38,8.78-20.23,8.78-4.54,0-10.08-1.08-21.6-4.18-9.79-2.66-15.41-3.74-19.59-3.74C9.79,4.2,4.97,7.37.43,13.06c-.43.5-.43.29-.43-.22,0-.43.65-2.23,1.44-3.1C6.7,3.62,13.39.02,21.53.02,26.14.02,31.68,1.61,41.4,4.2Z"/>
  </g>
</svg>